<?xml version="1.0" encoding="UTF-8"?>
<svg id="Lag_1" xmlns="http://www.w3.org/2000/svg" version="1.1" viewBox="0 0 1000 500">
  <!-- Generator: Adobe Illustrator 29.1.0, SVG Export Plug-In . SVG Version: 2.1.0 Build 142)  -->
  <defs>
    <style>
      .st0 {
        fill: #ae272d;
        stroke-width: 2px;
      }

      .st0, .st1 {
        stroke: #ae272d;
      }

      .st0, .st1, .st2 {
        stroke-miterlimit: 10;
      }

      .st1 {
        fill: none;
        stroke-width: 3px;
      }

      .st2 {
        fill: #fff;
        stroke: #fff;
      }
    </style>
  </defs>
  <path class="st1" d="M65.1,339.7c-1,2-3.8,2-4.8,0-5-10.8-9.8-18.3-11-37.9-1.2-19.9,0-42.6,2.3-57.1,2.3-15,10.9-25.1,15.3-29.4,1.2-1.2,3.2-.7,3.8.8,1.9,4.9,5.4,15.2,6.1,27.8,1.3,23.3.7,34.5-1.1,49.9-1.3,10.9-1.5,27.1-10.5,45.8Z"/>
  <path class="st1" d="M418.9,298.4c-10,5.9-25.9,43.5-36.2,45.2-57,5.2-112.2,5.2-169.2,3.5-50.1-1.7-101.9-1.7-151.5-5.1"/>
  <path class="st1" d="M68.1,214.6c107.8.5,206-1.4,314.6,2,10.3,0,23.6,39.1,36.2,43.8"/>
  <line class="st1" x1="418.2" y1="298.4" x2="482.6" y2="298.4"/>
  <path class="st1" d="M418.5,260.5h64.2-64.2Z"/>
  <path class="st1" d="M482.5,265.6c0,9.8,0,19.6,0,29.4,0,2.3-.2,5,1.3,6.3s2.5.4,3.9,0c2.9-1,1.2-4.2,1-6.7-1-17.9,0-26.6,0-30s.2-6-.7-7.7-5.9-1.2-5.9,1.6.4,4.5.4,7.2Z"/>
  <path class="st1" d="M489.3,300.4c.5.5,2.9,1.2,4.2.7,2.9-1,1.2-4.2,1-6.7-1-17.9,0-26.6,0-30,0-1.3,1-6.3.1-8.1-.9-1.7-6.3-1.1-6.3,1.8"/>
  <path class="st0" d="M493.7,265.1c7.6,0,18.7-1,30.9-5.6,28.3-10.6,37.7-31.2,55.3-45,36.1-28.3,85.2-15.6,88.1-15,29,6.6,29,20.2,55.3,23.4,29.3,3.6,37.1-12.4,72.1-16.9,12-1.5,60.4-7.8,89.9,22.5,32.9,33.7,18.2,88.1,15.9,96.5-4.2,15.4-11.8,43.6-30.9,48.7-23.3,6.2-39.1-28.4-82.4-44-33.6-12.1-65.3-5.2-77.8-2.8-38.8,7.5-38.4,22-73.1,28.1-7.7,1.4-73,12.2-98.4-20.6-9.9-12.8-14.7-33.6-34.7-40.3-3.9-1.3-7.3-1.7-9.4-1.9"/>
  <g>
    <path class="st2" d="M556.2,304.1c-1.4-.9-2.6-2.2-3.4-3.9-.8-1.7-1.2-3.4-1.1-5.1,0-3.3.2-6.7.8-10,.6-3.4,1.4-6.7,2.4-9.9.7-1.9,1.5-3.9,2.3-6,.8-2.1,1.7-4,2.5-5.8.9-1.8,1.6-3.3,2.2-4.3,1.7-2.7,3.4-5,5.2-6.8,1.8-1.8,3.2-2.9,4.1-3.5.7-.4,2-.9,3.9-1.3,1.8-.4,3.7-.4,5.7,0,1.4.4,2.7.8,3.9,1.4,1.2.5,2,1,2.4,1.4.4.6.8,1.2,1.2,1.6.3.5.5,1,.5,1.6,0,.4,0,.9-.4,1.6-.3.6-.8,1.1-1.3,1.3-.5.3-1,.1-1.5-.4-.7-1.1-1.4-1.8-2.2-2.2-.7-.4-1.5-.8-2.4-1.2-.6-.4-1.4-.6-2.4-.6-1,0-2.1,0-3.1.4-1.1.3-2,.7-2.8,1.4-.5.5-1.2,1.2-2.1,2.1-.9.9-1.7,2-2.6,3.1-.9,1.1-1.5,2.2-2.1,3.3-1.4,2.5-2.7,5-3.9,7.6-1.1,2.5-2.1,5.3-2.9,8.3-.2.7-.5,1.8-.8,3.3-.3,1.4-.7,2.9-1,4.3-.3,1.4-.5,2.6-.6,3.5-.4,2.6-.5,4.9-.4,6.9.1,2,.8,3.3,2,4.1,1.2.7,3.3.6,6.1-.3,1.2-.2,2.5-.7,4-1.6,1.4-.9,2.8-2,4.2-3.4,1.4-1.4,2.5-2.8,3.5-4.4.9-1.7,1.7-3.4,2.4-5,.7-1.7,1.1-3,1.2-4.1,0-1.1-.5-1.6-1.5-1.5-2-.2-3.6-.3-4.8-.2-1.2,0-2.3,0-3.3-.5-.4-.6-.5-1.2-.5-1.8,0-.6.4-1.2,1-1.8.6-.2,1.6-.4,3-.5,1.4-.1,2.9,0,4.5.1,1.6.2,3,.6,4.2,1.2.9.4,1.5,1.1,1.9,1.9.4.8.6,1.8.6,2.8s-.1,2.2-.3,3.3c-.3,1.2-.8,2.6-1.7,4.2-.9,1.6-1.9,3.3-3.2,5.2-.8,1.1-1.9,2.3-3.3,3.7-1.4,1.3-2.9,2.5-4.3,3.6-1.5,1.1-2.7,1.8-3.7,2.2-2.1,1-4.3,1.6-6.6,1.9s-4.1,0-5.5-1.1Z"/>
    <path class="st2" d="M592.7,301.6c-1,.3-1.8,0-2.4-.6-.6-.7-1-1.8-1.1-3.2-.1-1.4,0-3.1.5-5.1.3-.6.5-1.3.6-1.9.2-.6.2-1.1.2-1.5.1-.5.3-1.3.6-2.4s.7-2.1,1-3.2c.4-1.1.7-2.1,1.1-3,.3-.9.6-1.4.7-1.6.2,0,.4-.2.6-.6.2-.4.2-.7.2-1.1s0-.9.3-1.4c.2-.5.4-.9.6-1.1,0-.3,0-.6.2-.9.1-.3.2-.6.2-.8s0-.4.2-.6c.1-.2.2-.4.2-.6.4-.7.9-1.8,1.5-3.3.6-1.5,1.3-3.2,2-5.1.7-1.9,1.4-3.7,2-5.5.6-1.8,1.2-3.3,1.6-4.6.4-1.3.6-2,.6-2.3,0-.4.1-.7.3-1,.2-.2.5-.3,1-.3.2-.2.4-.3.6-.3.2,0,.5,0,.7,0,.4.4.9.9,1.3,1.3.4.4.7.8.8,1.3,0,.5.1,1,.1,1.7s0,1.3-.2,1.8c-.2.5-.5,1.3-1,2.3-.5,1-1.2,2.6-2.2,4.7-.4,1.1-.9,2.1-1.4,3-.5.9-.7,1.5-.7,1.7s0,.5-.3,1c-.2.4-.4,1-.6,1.6-.2.4-.5,1.1-.9,1.9-.4.8-.8,1.7-1.2,2.6-.4.9-.7,1.7-1,2.4-.3.7-.4,1.1-.4,1.2,0,.2,0,.4,0,.6,0,.2-.1.4-.4.6-.2,0-.3.3-.4.9,0,.5-.4,1.9-1.3,4.2-.9,2.9-1.6,5.6-2.4,8.1-.7,2.5-1.1,4.4-1.1,5.9s0,2.1,0,2.5c0,.4-.3.7-.7.9Z"/>
    <path class="st2" d="M604.4,298.7c-.2-.4-.5-.8-.8-1-.3-.2-.5-.5-.5-.7s0-.4,0-.7c0-.2-.1-.5-.4-.7-.3-.3-.2-1.1,0-2.2.3-1.1.9-2.6,1.6-4.2.7-1.7,1.6-3.5,2.6-5.3.4-.4.9-1,1.3-1.7.4-.7.7-1.1,1-1.4,0-.2,0-.4.2-.6.2-.2.3-.3.6-.3v-.5c0-.3.3-.7.8-1.4.5-.6,1.1-1.3,1.9-2.1.7-.8,1.5-1.5,2.3-2.2s1.5-1.2,2-1.6c1.1-.7,2.3-1.2,3.5-1.4,1.2-.2,2.2.1,3.1.8.2.2.4.4.8.8.4.4.8.8,1.3,1.2.5.5,1,.9,1.6,1.4l3,2.6-1.4,4c-.7,2.1-.9,4-.5,5.6.3,1.6.9,3,1.6,4.2.3.6.8,1.1,1.6,1.7.8.5,1.6.9,2.4,1,.4,0,.8.2,1.2.5.4.3.6.7.6,1.3s-.1,1-.3,1.3c-.2.3-.6.5-1.1.6-1.8.2-3.4-.2-4.9-1.3-1.5-1.1-2.9-2.8-4.2-5.3-.2-.3-.5-.9-.8-1.8-.3-.9-.5-1.5-.6-1.7-.2.3-.6.8-1.2,1.5-.6.7-1,1.2-1.4,1.6-3.8,3.8-7.1,6.4-9.8,7.7-2.7,1.3-5,1.4-6.8.2ZM609,294.2c1.1-.4,2.4-1.1,3.7-2.2,1.8-1.5,3.6-3.3,5.5-5.1,1.8-1.9,3.3-3.6,4.4-5.2l1.8-2.9c-.5-1.2-1.1-2.1-1.7-2.5-.6-.5-1.1-.7-1.6-.7-.7,0-1.7.6-3.1,1.9-1.4,1.3-2.8,3-4.4,5.1-1.5,2.1-3,4.5-4.4,7-.5,1.1-1.2,2.6-2,4.6,0,.4.6.4,1.7,0Z"/>
    <path class="st2" d="M659.3,300.8c-.2,0-.5,0-.9-.1-.4,0-.7-.3-1-.7-.8-1-1.3-1.8-1.5-2.4-.2-.6-.2-1.6,0-2.8.1-.8.2-1.5.2-2.1,0-.6,0-1.1.1-1.6-.2-.2-.6,0-1.2.4-.6.5-1.3,1.1-2.3,1.9-1.8,2.1-3.4,3.7-4.8,4.8-1.4,1.1-2.7,1.8-3.8,2.2-1.1.3-2.2.5-3.2.4-.9-.1-1.6-.5-2.2-1.2-.5-.7-.9-1.5-1-2.6-.1-1.1-.1-2.2,0-3.4.2-1.8.6-3.4,1.2-5,.6-1.6,1.5-3.4,2.8-5.4.6-1.1,1.4-2.1,2.4-3.2,1-1,2.1-2,3.3-2.8,1.2-.8,2.4-1.4,3.5-1.8,1.2-.5,2.5-.8,3.8-.8,1.3,0,2.4,0,3.4.4.6.3,1.2.5,1.6.5s.7-.3.9-.8c.3-.4.5-1.1.8-2,.3-.9.6-1.6,1-2.3l1.8-5.2c.6-1.4,1.2-3,1.9-4.6.7-1.6,1.5-3.5,2.5-5.8.9-1.7,1.7-2.7,2.2-3,.6-.3,1.3,0,2,.7.6.7.8,1.5.6,2.4s-.6,2.3-1.4,4.2c-.4.6-.7,1.1-1,1.6-.3.5-.6,1.3-1.1,2.4-.7,1.7-1.3,3.1-1.9,4.4-.6,1.3-1.2,2.8-1.8,4.4-.2.9-.5,1.8-.8,3-.3,1.1-.6,2.1-.8,3-.2.9-.3,1.6-.5,2.4-.2.7-.4,1.1-.6,1.1-.4.5-.8,1.3-1.2,2.5-.4,1.2-.7,2.4-.9,3.7s-.4,2.3-.6,3.2c-.1.6-.2,1.5-.2,2.5,0,1,0,2,0,2.9v2c0,1.2,0,1.9,0,2.2,0,.3-.3.5-.6.5ZM642.2,295.8c1.1,0,2.3-.5,3.6-1.4,1.3-1,2.5-2,3.8-3.2.8-.7,1.7-1.7,2.6-3,.9-1.2,1.8-2.5,2.7-3.7.9-1.2,1.6-2.3,2.1-3.2.5-.9.8-1.5.8-1.7s-.2-.5-.7-.6c-.5-.1-1-.2-1.6-.2-.6,0-1.1,0-1.5.1-1.2.3-2.3.8-3.5,1.6-1.1.8-2.4,2-3.7,3.6-1.4,1.7-2.5,3.5-3.4,5.3-.9,1.8-1.4,3.3-1.6,4.6-.2,1.2,0,1.8.5,1.8Z"/>
    <path class="st2" d="M734.1,305.9c0,.6-.2,1-.8,1.1-.6,0-1.4,0-2.4-.3-1-.3-2-.7-3.1-1.2-1.1-.5-2-1-2.8-1.5-1-.3-2.4-1.3-4.2-3-1.8-1.7-3.8-3.8-5.8-6.2-2.1,1.2-3.9,2.1-5.2,2.8-1.3.7-2.5,1.3-3.6,1.8-1.1.5-2.4.9-3.9,1.3-3.5.3-6.7,0-9.7-1-.4-.2-1-.5-1.6-1-.7-.5-1.3-1-2-1.5-.6-.5-1.1-.9-1.4-1.2-.3-.2-.4-.5-.4-1.1s0-1.1.2-1.7c.1-.6.2-1,.2-1.1.2-.5.6-1.3,1.4-2.5.8-1.2,1.8-2.6,3-4.2,1.2-1.6,2.5-3.2,3.9-4.9,1.4-1.7,2.8-3.2,4.2-4.6-1.3-1.9-2.2-3.6-2.6-5.3-.5-1.7-.5-3.5,0-5.5.5-2,1.5-4.3,3-7,.5-.9,1.2-1.7,2-2.7.8-.9,1.6-1.8,2.4-2.6.8-.8,1.5-1.5,2.2-1.9.6-.5.9-.6,1-.5.2.4.4.5.6.4.2-.1.4-.2.6-.2.2-.1.6-.1,1.2-.1.6,0,1.3,0,2,.2.8.1,1.5.3,2.2.6,1.9.2,3.3.4,4,.6.8.2,1.5.7,2.1,1.4.8.6,1.4,1.2,1.8,1.8.4.6.7,1.2.9,1.7.2.6.3,1.1.3,1.6,0,.7-.5,1.8-1.6,3.2-1.1,1.4-2.5,3-4.4,4.6-.7.9-1.8,1.9-3.2,3.3,0,.2-.1.5-.4.9-.3.4-.6.6-1,.8-.6.5-1.4,1.3-2.5,2.2-1.1,1-2,1.8-2.9,2.6-.9.8-1.3,1.3-1.4,1.4,0,.1.2.6.7,1.4.5.8,1.2,1.8,2.1,2.9.9,1.1,1.7,2.2,2.6,3.3.9,1.1,1.7,2,2.4,2.7.7.7,1.1,1.1,1.4,1.1,1.8-1.7,3.6-3.4,5.5-5,1.9-1.6,3.8-3.3,5.8-5.2,1.3-1.4,2.3-2.4,2.8-2.9.6-.6,1-.8,1.3-.8.3,0,.6.3,1,.6.7.1,1.1.4,1.1,1,0,.6,0,1.1-.2,1.6-.2.5-.3.8-.4.8-.7.9-1.7,1.9-2.9,3.1-1.2,1.2-2.5,2.4-3.9,3.6-1.4,1.3-2.7,2.4-3.9,3.6-1.2,1.1-2.2,2.1-3,2.9,1.3,1.5,2.3,2.6,3,3.2,1.8,1.8,3.1,3.1,4.1,3.8,1,.7,2.1,1.3,3.3,1.7,1.7.5,2.9,1.2,3.7,2,.8.8,1.2,1.7,1.3,2.9ZM694.9,296.2c1.6.5,3.2.7,4.7.5,1.5-.1,3.2-.6,4.9-1.3,1.7-.7,3.6-1.8,5.6-3.2l1.5-1.1-2-2.3c-.4-.4-.9-1.1-1.7-2.2-.7-1-1.5-2-2.2-2.9-.8-.7-1.6-1.8-2.5-3.2-.2,0-.5.3-1.1.8-.6.5-1.1,1.2-1.8,1.9-.6.7-1.1,1.3-1.4,1.9-1.2,1-2.2,1.9-2.8,2.8-.6.9-1.4,2-2.2,3.2-.4.9-.6,1.6-.6,2.2,0,.6,0,1.2.3,1.6s.6.8,1.2,1.2ZM704,273c.6-.6,1.5-1.5,2.7-2.4,1.2-1,2.5-2.1,3.9-3.3,1.4-1.2,2.7-2.4,4-3.7,1.2-1.3,2.2-2.5,2.9-3.6.7-1.1.9-2.2.7-3.1-.1-.2-.5-.5-1.3-.9-.8-.4-1.6-.7-2.6-1-.9-.3-1.7-.5-2.4-.4-1.1-.1-2.3.5-3.6,1.7-1.4,1.2-2.7,2.7-3.9,4.5-1.3,2-2.1,4-2.4,6.2-.3,2.2.4,4.2,2,6Z"/>
    <path class="st2" d="M798.9,305.4c0,.3-.4.4-.9.3-.6-.1-1.1-.5-1.5-1.2-.4-1-.6-1.9-.6-2.8s0-2.1,0-3.8c.3-1.9.8-4.3,1.3-7.3.6-3,1.2-6.4,2-10.2.8-3.8,1.6-7.7,2.5-11.8.6-2.1,1.2-4.1,1.6-5.9.4-1.8.8-3.8,1.2-6,0-.2-.1,0-.4.2-.3.3-.6.6-.8,1-.3.4-.4.7-.3.9-.7,1.1-1.4,2.1-2,3-.5.5-1.2,1.6-1.9,3.2-.7,1.6-1.6,3.1-2.5,4.5-.9,1.6-1.8,3.3-2.7,5.2s-1.8,3.4-2.6,4.6c-.5.7-1,1.5-1.4,2.4-.5.9-.8,1.5-.9,1.8-.2.6-.6,1.3-1.1,2.1-.5.8-1.1,1.6-1.8,2.4-.3.5-.6,1-1,1.5-.3.5-.7,1.1-1,1.8,0,.2-.3.6-.8,1.4-.5.8-1.1,1.7-1.8,2.6-.7,1-1.4,1.8-2,2.5-1.9,2-3.4,3.1-4.5,3.5-1.1.3-2.4-.1-3.8-1.4-.7-.9-1.2-1.8-1.5-2.9-.3-1.1-.5-2.5-.4-4.1,0-1.6.2-3.7.6-6.1.4-1.9.7-3.7,1-5.6.3-1.9.6-3.7.9-5.4.3-1.7.6-3.1.8-4.3.2-1.2.4-1.9.6-2.3.1-1.1,0-1.7,0-1.8-.2-.1-.5.2-1,1-.2.4-.8,1.3-1.7,2.8-.9,1.5-2,3.3-3.2,5.4-1.2,2.1-2.4,4.5-3.6,7-2.2,4.1-4,7.4-5.4,10-1.4,2.6-2.5,4.7-3.4,6.3-.8,1.5-1.4,2.7-1.8,3.4-.4.7-.6,1.3-.8,1.5-.2.3-.3.5-.4.6-.5,0-1-.2-1.5-.6s-1-.9-1.6-1.4c-.2-.4-.2-.7-.2-1.1,0-.4.2-.9.5-1.6.3-.7.8-1.8,1.4-3.3.7-1.4,1.3-2.6,1.9-3.6s1-1.7,1.4-1.9c.3-.4.5-.9.7-1.3s.3-.9.4-1.5c.3-.3.7-1,1.2-2,.6-1,1.1-2.1,1.7-3.2.4-.7,1-1.6,1.6-2.7s1.4-2.4,2.1-3.7c.7-1.4,1.4-2.7,2-3.9,2.5-4.2,4.5-7.8,6.2-10.7,1.7-2.9,3-4.8,3.8-5.6.3-.3.5-.6.8-1.1.3-.5.4-.9.4-1.3,0-1.1.2-2.1.7-3.1.5-.9.9-1.3,1.4-1.2.5,0,1,0,1.4.2.4.1.9.5,1.4,1,.4.6.8,1.3,1.1,1.9.3.6.3,1.9,0,3.8,0,.7,0,1.6-.2,2.5-.2.9-.3,1.8-.4,2.6-.1.8-.2,1.4-.3,1.8-.7,2.1-1.3,4.4-1.9,7-.6,2.6-1.1,5.2-1.6,7.8-.5,2.6-.9,5.1-1.2,7.4-.3,2.3-.5,4.1-.6,5.6s0,2.3.1,2.5c.4.2.7.2,1,0,.3-.2.7-.9,1.4-2.1.4-.6.9-1.4,1.6-2.4.7-.9,1.3-1.8,2-2.6.4-.7,1.1-1.9,2-3.4.9-1.5,2.1-3.4,3.5-5.8,1.4-2.3,3.1-5.2,5.1-8.6,2-3.4,4.3-7.3,6.8-11.8,1.2-1.9,2.4-3.7,3.5-5.5,1.1-1.8,2-2.9,2.7-3.5.7-.7,1.5-.9,2.3-.5.8.3,1.5,1.1,2.1,2.1.6,1.1.9,2.4,1,4,0,.7,0,1.9-.3,3.6-.2,1.7-.6,3.5-1.1,5.6-.5,2.1-1.1,4.3-1.8,6.5-.2.9-.4,2-.8,3.4-.3,1.4-.7,2.8-1.2,4.2-.4,1.4-.9,2.8-1.3,4.1-.3,1.8-.6,3.5-.9,5.2-.3,1.7-.5,2.9-.4,3.4-.5.9-.8,2.1-1,3.7-.2,1.6-.2,3.3-.2,5-.2,2.1-.4,3.5-.5,4.4-.1.9-.3,1.3-.6,1.2-.7-.2-1,0-1,.4Z"/>
    <path class="st2" d="M811.8,298.7c-.2-.4-.5-.8-.8-1-.3-.2-.5-.5-.5-.7s0-.4,0-.7c0-.2-.1-.5-.4-.7-.3-.3-.2-1.1,0-2.2.3-1.1.9-2.6,1.6-4.2.7-1.7,1.6-3.5,2.6-5.3.4-.4.9-1,1.3-1.7.4-.7.7-1.1,1-1.4,0-.2,0-.4.2-.6.2-.2.3-.3.6-.3v-.5c0-.3.3-.7.8-1.4.5-.6,1.1-1.3,1.9-2.1.7-.8,1.5-1.5,2.3-2.2s1.5-1.2,2-1.6c.7-.5,1.5-.9,2.3-1.1.8-.2,1.6-.3,2.3-.2.7,0,1.4.3,1.9.8.2.2.4.4.8.8.4.4.8.8,1.3,1.2.5.5,1,.9,1.6,1.4l3,2.6-1.4,4c-.5,1.4-.9,2.6-1.4,3.7-.4,1.1-.7,2-1,2.8l-.7,4.4-.7-1.4c-.2-.3-.5-.9-.8-1.8-.3-.9-.5-1.5-.6-1.7-.2.3-.6.8-1.2,1.5-.6.7-1,1.2-1.4,1.6-2.5,2.6-4.8,4.6-6.9,6-2.1,1.4-3.9,2.3-5.5,2.6-1.6.3-3,0-4.2-.7ZM816.4,294.2c1.1-.4,2.4-1.1,3.7-2.2,1.2-1.1,2.5-2.2,3.7-3.4,1.2-1.2,2.4-2.4,3.5-3.6,1.1-1.2,2-2.3,2.8-3.4l1.8-2.9c-.5-1.2-1.1-2.1-1.7-2.5-.6-.5-1.1-.7-1.6-.7-.7,0-1.7.6-3.1,1.9-1.4,1.3-2.8,3-4.4,5.1-1.5,2.1-3,4.5-4.4,7-.5,1.1-1.2,2.6-2,4.6,0,.4.6.4,1.7,0ZM844.9,298.8c-1.1,1-2.4,1.5-3.9,1.7-1.5.2-2.9,0-4.3-.7-1.4-.6-2.5-1.6-3.4-2.8-.9-1.2-1.5-2.5-1.8-4-.3-1.5-.3-3.5,0-6,.2-2.1.8-4.2,2-6.3,1.2-2.1,2.6-4,4.3-5.6s3.3-2.8,5-3.4c.8-.5,1.5-.8,2-.8.6,0,1.4,0,2.6.2,1.2.2,2.1.4,2.8.7s1.1.7,1.5,1.3c.5.5.9,1.1,1.2,1.6.3.5.5,1.1.6,1.6.1.5.2,1,.2,1.5-.2,1.2-1,2.6-2.4,4.3-1.4,1.7-3.1,3.1-5.3,4.1-1.2.4-2.5.5-3.8.5-1.4,0-2.5-.4-3.4-1-1-.4-1.7-.4-2,.2-.3.6-.6,1.9-.9,4-.2,2,0,3.5.5,4.4.5.9,1.3,1.5,2.2,1.6,1.1.2,1.9.4,2.5.4.6,0,1.4-.1,2.3-.7.9-.5,1.4-.8,1.6-.9.2,0,.4-.2.5-.3.1-.1.5-.5,1-1,.4-.4.7-.7.9-.8.2-.2.5-.3.7-.3s.5.1.7.4c.2.2.4.4.6.5.5,0,.7.3.4,1-.3.6-.9,1.4-1.7,2.3-.9.9-1.9,1.7-3,2.4ZM844.9,281.8c.6-.3,1.2-.7,1.8-1.2.6-.5,1.2-1.1,1.6-1.7s.7-1.1.7-1.6c0-.7-.3-1.4-1-1.9-.7-.5-1.7-.6-3.1-.2-.6.2-1.3.5-2,1.2-.7.6-1.5,1.3-2.1,2-.7.7-1.2,1.4-1.6,2-.4.6-.5.9-.4,1,.2.3.6.5,1.4.6.7.1,1.6.2,2.5.1.9,0,1.7-.2,2.3-.5Z"/>
    <path class="st2" d="M863.9,301c-.6-.1-1.2-.4-1.8-.9-.6-.5-1.1-1.1-1.6-1.8-.5-.7-.8-1.3-.9-1.8,0-.1-.1-.3-.4-.6-.2-.2-.3-.9-.4-2.1,0-1.3,0-2.7.2-4.2.2-1.5.3-2.8.6-3.7.3-.9.7-2,1.2-3.5.5-1.5,1-2.8,1.4-4l2.2-4.6-3.2-.9c-.4-.1-.7-.3-.9-.6-.2-.3-.4-.6-.4-.8,0-.4.2-.9.7-1.6.5-.6.8-.9,1-.9.3,0,.8,0,1.5,0s1.4,0,2.1,0c.7,0,1.1-.1,1.3-.2.2-.1.4-.3.6-.4.2-.2.4-.5.5-.8.3-.6.5-1.1.7-1.6.2-.5.5-1.1.9-1.7.4-.7.7-1.3.9-1.8.2-.5.6-1.1,1.2-2,.3-.4.6-.8.9-1.4.3-.5.7-1,1.2-1.4.5-.4,1-.6,1.5-.6.5,0,1.2.4,2,1.1.4.5.7.9.7,1.2,0,.3-.2.8-.6,1.5-.4.9-.9,1.8-1.5,2.7-.6.9-1.1,1.8-1.6,2.7-.9,1.2-1,1.8-.5,2s2,0,4.5-.3c1.5-.3,2.7-.2,3.4.2.7.4,1.1,1.1,1.2,2,.2,1.3,0,2.1-.4,2.3-.4.3-1.7.4-3.7.4-1.3.2-2.4.3-3.3.4-.9,0-1.6,0-2,0-.7,0-1.1,0-1.4,0s-.5,0-1,.2c-.4.1-.7.3-.9.5-.2.2-.4.6-.6,1-.2.2-.5.8-1,1.7-.4.9-1,1.9-1.6,3-.7,2.2-1.4,4.5-1.9,6.7-.5,2.2-1,4.4-1.3,6.4-.2,1.3-.2,2.3,0,2.8.3.5,1,.8,2.1.9.6,0,1.5,0,2.8,0,1.3,0,2.3-.2,3.1-.4.6-.3,1.2-.5,1.8-.8.6-.3,1.2-.6,1.8-.9.5-.3,1.2-.7,2.2-1.3.3-.4.6-.6.9-.4.3.2.6.6.8,1.2,0,.6-.1,1.3-.4,2-.3.7-1.3,1.5-3,2.5-2.4,1.5-4.6,2.4-6.6,2.7s-3.7.3-5.1,0Z"/>
  </g>
</svg>